<?xml version="1.0" encoding="UTF-8" standalone="no"?>
<!DOCTYPE svg PUBLIC "-//W3C//DTD SVG 1.1//EN" "http://www.w3.org/Graphics/SVG/1.1/DTD/svg11.dtd">
<svg width="100%" height="100%" viewBox="0 0 902 908" version="1.1" xmlns="http://www.w3.org/2000/svg" xmlns:xlink="http://www.w3.org/1999/xlink" xml:space="preserve" style="fill-rule:evenodd;clip-rule:evenodd;stroke-linecap:round;stroke-linejoin:round;stroke-miterlimit:1.5;">
    <g id="Layer1">
        <path d="M902,113.361L0,83.959" style="fill:none;stroke:black;stroke-opacity:0.2;stroke-width:1.5px;"/>
    </g>
    <path d="M823.534,0L798.323,908" style="fill:none;stroke:black;stroke-opacity:0.2;stroke-width:1.5px;"/>
    <path d="M333.431,93.753L326.215,298.048L227.882,294.581L213.625,698.618L421.048,700.982L419.994,609.228L660.194,613.071L663.641,510.864L808.918,516.533" style="fill:none;stroke:black;stroke-opacity:0.101961;stroke-width:1.5px;"/>
    <path d="M609.784,188.471L573.779,169.414L512.277,162.336L419.993,206.169L359.894,271.544L359.269,320.7L406.524,361.403L451,421.955L436.566,488.669L451,533.638L511.383,549.742L525.55,526.867L541.998,492.304L564.602,486.513L592.435,494.075L619.045,488.612L641.852,487.81L666.196,476.607L756.639,353.508L763.347,290.258L766.524,268.528L731.795,266.648L687.201,270.794L682.102,242.242L609.784,188.471Z" style="fill-opacity:0.101961;stroke:black;stroke-opacity:0.2;stroke-width:1.5px;"/>
    <path d="M253.701,361.216L217.389,362.883L204.55,379.341L214.258,406.549L201.05,438.851L184.738,463.508L188.883,503.992L192.883,544.81L189.482,582.909L178.909,613.409L189.055,643.393L212.618,668.705L223.868,672.877L257.488,691.133L287.43,663.987L291.394,633.445L308.014,624.013L328.04,628.794L348.378,639.263L367.014,642.482L389.618,637.159L393.915,619.909L388.029,596.367L361.321,583.19L349.665,576.482L345.623,561.982L370.774,558.747L386.758,561.31L391.998,531.205L391.998,514.33L392.915,494.174L390.571,479.643L372.378,441.33L340.67,420.028L307.139,382.075L253.701,361.216Z" style="fill-opacity:0.101961;stroke:black;stroke-opacity:0.2;stroke-width:1.5px;"/>
    <path d="M327.493,345.476L169.399,340.31L166.217,459.424L139.092,458.133L140.016,578.475L139.997,576.056L114.092,575.497L114.092,645.409L147.722,645.409L147.722,690.752L189.415,690.752L189.415,721.44L369.446,721.44L369.446,654.034L420.331,654.034L420.331,418.669L382.769,418.669L382.769,398.976L362.764,398.976L362.764,382.159L326.269,382.159L327.493,345.476Z" style="fill:none;stroke:black;stroke-opacity:0.101961;stroke-width:1.5px;"/>
    <path d="M383.675,96.466L382.675,127.888L360.864,127.825L357.472,196.95L330.695,195.437" style="fill:none;stroke:black;stroke-opacity:0.101961;stroke-width:1.5px;"/>
    <path d="M792.619,110.241L791.118,176.174L818.602,177.726" style="fill:none;stroke:black;stroke-opacity:0.101961;stroke-width:1.5px;"/>
</svg>
